<svg id="f00fcbd3-e56f-405f-ba0c-13fff7e40ca8" data-name="Ebene 1" xmlns="http://www.w3.org/2000/svg" width="300" height="300" viewBox="0 0 300 300">
  <g>
    <circle cx="164.01" cy="70.963" r="21.5"/>
    <path d="M179.589,105.045c23.731,11.1,43.914,17.081,70.479,13.419a190.83,190.83,0,0,0,26.014-5.544,1.456,1.456,0,0,1,1.273,2.539,101.883,101.883,0,0,1-24.125,13.918,92.885,92.885,0,0,1-17.086,5.174,87.087,87.087,0,0,1-39.953-.979A84.262,84.262,0,0,1,169.743,121.3C160.277,114.309,169.089,99.945,179.589,105.045Z"/>
    <path d="M113.914,92.954c-6.018-.317-12.1-1.025-18.13-.946a110.079,110.079,0,0,0-29.73,3.549,112,112,0,0,0-23.228,9.385,186.3,186.3,0,0,0-22.293,14.334,1.371,1.371,0,0,1-2.033-1.791A101.248,101.248,0,0,1,50.707,85.622a87.23,87.23,0,0,1,37.714-12.7,84.989,84.989,0,0,1,28.942,2.367C128.11,78.378,124.957,94.107,113.914,92.954Z"/>
    <path d="M132.386,150.291a131.134,131.134,0,0,0-37.8-4.357,14.152,14.152,0,0,0-13,9.966c-2.654,9.2,3.4,16.8,12.386,18.574a105.242,105.242,0,0,0,10.714,2.584c-4.207,13.715-6.073,24.673-21.977,38.12-14.753,12.345-33.09,21.45-49.825,30.891a1.964,1.964,0,0,0,1.223,3.7C44.736,247.507,55.278,245,65.678,241.7c10.618-3.358,21.407-7.545,30.975-13.454,15.655-9.332,28.228-25.16,32.914-42.931q.609-2.139,1.082-4.287a40.107,40.107,0,0,1,10.97,3.255,3.539,3.539,0,0,1,2.215,2.974c1.269,8.321-2.18,17.35-4.4,25.509-3.468,11.33-7.478,23.117-9.83,34.79a2.353,2.353,0,0,0,4.222,1.927c3.228-4.975,6.478-9.9,9.816-14.81,2.981-4.425,7.185-10.463,9.965-14.969C175.323,187.626,172.7,161.707,132.386,150.291Z"/>
    <circle cx="271.716" cy="85.759" r="10"/>
  </g>
</svg>
